<svg width="34" height="34" viewBox="0 0 34 34" fill="none" xmlns="http://www.w3.org/2000/svg">
<g id="devicon:google">
<path id="Vector" d="M11.8442 1.11808C8.44703 2.29657 5.51735 4.53339 3.48545 7.49999C1.45354 10.4666 0.42651 14.0066 0.555208 17.6C0.683906 21.1935 1.96155 24.6509 4.20047 27.4645C6.43939 30.2782 9.52158 32.2997 12.9943 33.2321C15.8097 33.9586 18.7595 33.9905 21.5899 33.3251C24.1541 32.7492 26.5247 31.5172 28.4696 29.7498C30.4939 27.8542 31.9632 25.4426 32.7196 22.7745C33.5418 19.873 33.6881 16.8216 33.1473 13.8548H17.3373V20.4131H26.4934C26.3104 21.4591 25.9182 22.4574 25.3404 23.3483C24.7626 24.2392 24.011 25.0044 23.1306 25.5981C22.0125 26.3377 20.7521 26.8353 19.4304 27.059C18.1048 27.3055 16.7451 27.3055 15.4195 27.059C14.0759 26.7812 12.8049 26.2267 11.6874 25.4307C9.89221 24.16 8.54424 22.3546 7.83588 20.2723C7.11554 18.151 7.11554 15.8512 7.83588 13.73C8.3401 12.243 9.17365 10.8892 10.2743 9.76948C11.5339 8.46459 13.1285 7.53185 14.8833 7.07359C16.6381 6.61533 18.4852 6.64927 20.222 7.17167C21.5787 7.58815 22.8194 8.31582 23.8451 9.29667C24.8775 8.26959 25.9081 7.23985 26.937 6.20745C27.4682 5.6523 28.0473 5.1237 28.5706 4.55527C27.0049 3.09825 25.1671 1.96451 23.1624 1.21902C19.512 -0.10648 15.5177 -0.142102 11.8442 1.11808Z" fill="white"/>
<path id="Vector_2" d="M11.844 1.11839C15.5172 -0.142644 19.5115 -0.10796 23.1623 1.21667C25.1673 1.96723 27.0042 3.10643 28.5678 4.56886C28.0365 5.1373 27.476 5.66855 26.9342 6.22105C25.9035 7.2499 24.8738 8.27522 23.8449 9.29699C22.8192 8.31613 21.5785 7.58846 20.2218 7.17199C18.4856 6.64775 16.6386 6.61186 14.8833 7.06824C13.1281 7.52462 11.5325 8.45565 10.2715 9.75917C9.17084 10.8789 8.33729 12.2327 7.83307 13.7196L2.32666 9.45636C4.29762 5.54785 7.71021 2.55814 11.844 1.11839Z" fill="#E33629"/>
<path id="Vector_3" d="M0.865989 13.6795C1.16195 12.2127 1.65331 10.7922 2.32693 9.45605L7.83333 13.73C7.113 15.8513 7.113 18.151 7.83333 20.2723C5.99875 21.689 4.16328 23.1127 2.32693 24.5436C0.640607 21.1869 0.12631 17.3624 0.865989 13.6795Z" fill="#F8BD00"/>
<path id="Vector_4" d="M17.3371 13.8525H33.1471C33.6879 16.8194 33.5416 19.8707 32.7195 22.7722C31.9631 25.4404 30.4937 27.8519 28.4695 29.7475C26.6924 28.361 24.9074 26.985 23.1304 25.5985C24.0114 25.0042 24.7634 24.2382 25.3412 23.3463C25.9191 22.4545 26.3109 21.4551 26.4932 20.4082H17.3371C17.3345 18.2247 17.3371 16.0386 17.3371 13.8525Z" fill="#587DBD"/>
<path id="Vector_5" d="M2.32422 24.5437C4.16057 23.127 5.99604 21.7033 7.83063 20.2725C8.5404 22.3555 9.89029 24.1609 11.6875 25.4309C12.8085 26.2232 14.0822 26.7732 15.4275 27.0459C16.7531 27.2924 18.1128 27.2924 19.4384 27.0459C20.7602 26.8222 22.0205 26.3245 23.1386 25.585C24.9156 26.9715 26.7006 28.3475 28.4777 29.734C26.533 31.5024 24.1624 32.7353 21.598 33.312C18.7675 33.9774 15.8178 33.9455 13.0023 33.219C10.7756 32.6245 8.6957 31.5764 6.89297 30.1404C4.98488 28.6255 3.42644 26.7165 2.32422 24.5437Z" fill="#319F43"/>
</g>
</svg>
